<svg width="0" height="0" class="hidden">
  <symbol xmlns="http://www.w3.org/2000/svg" viewBox="0 0 48 48" id="full-screen">
    <rect width="48" height="48" fill="white" fill-opacity="0.01"></rect>
    <path d="M6 6L16 15.8995" stroke="black" stroke-width="4" stroke-linecap="round" stroke-linejoin="round"></path>
    <path d="M6 41.8995L16 32" stroke="black" stroke-width="4" stroke-linecap="round" stroke-linejoin="round"></path>
    <path d="M42.0001 41.8995L32.1006 32" stroke="black" stroke-width="4" stroke-linecap="round" stroke-linejoin="round"></path>
    <path d="M41.8995 6L32 15.8995" stroke="black" stroke-width="4" stroke-linecap="round" stroke-linejoin="round"></path>
    <path d="M33 6H42V15" stroke="black" stroke-width="4" stroke-linecap="round" stroke-linejoin="round"></path>
    <path d="M42 33V42H33" stroke="black" stroke-width="4" stroke-linecap="round" stroke-linejoin="round"></path>
    <path d="M15 42H6V33" stroke="black" stroke-width="4" stroke-linecap="round" stroke-linejoin="round"></path>
    <path d="M6 15V6H15" stroke="black" stroke-width="4" stroke-linecap="round" stroke-linejoin="round"></path>
  </symbol>
  <symbol version="1.1" xmlns="http://www.w3.org/2000/svg" xmlns:xlink="http://www.w3.org/1999/xlink" viewBox="0 0 24 24" id="full-screen-zoom">
    <g id="ðŸ”-Product-Icons" stroke="none" stroke-width="1" fill-rule="evenodd">
      <g id="ic_fluent_full_screen_zoom_24_filled" fill="#212121" fill-rule="nonzero">
        <path d="M20,15 C20.5522847,15 21,15.4477153 21,16 C21,16.5522847 20.5522847,17 20,17 L17,17 L17,20 C17,20.5522847 16.5522847,21 16,21 C15.4477153,21 15,20.5522847 15,20 L15,16 C15,15.4477153 15.4477153,15 16,15 L20,15 Z M4,15 L8,15 C8.51283584,15 8.93550716,15.3860402 8.99327227,15.8833789 L9,16 L9,20 C9,20.5522847 8.55228475,21 8,21 C7.48716416,21 7.06449284,20.6139598 7.00672773,20.1166211 L7,20 L7,17 L4,17 C3.44771525,17 3,16.5522847 3,16 C3,15.4871642 3.38604019,15.0644928 3.88337887,15.0067277 L4,15 L8,15 L4,15 Z M16,3 C16.5128358,3 16.9355072,3.38604019 16.9932723,3.88337887 L17,4 L17,7 L20,7 C20.5522847,7 21,7.44771525 21,8 C21,8.51283584 20.6139598,8.93550716 20.1166211,8.99327227 L20,9 L16,9 C15.4871642,9 15.0644928,8.61395981 15.0067277,8.11662113 L15,8 L15,4 C15,3.44771525 15.4477153,3 16,3 Z M8,3 C8.55228475,3 9,3.44771525 9,4 L9,8 C9,8.55228475 8.55228475,9 8,9 L4,9 C3.44771525,9 3,8.55228475 3,8 C3,7.44771525 3.44771525,7 4,7 L7,7 L7,4 C7,3.44771525 7.44771525,3 8,3 Z" id="ðŸŽ¨-Color"></path>
      </g>
    </g>
  </symbol>
  <symbol version="1.1" id="volume" xmlns="http://www.w3.org/2000/svg" xmlns:xlink="http://www.w3.org/1999/xlink" x="0px" y="0px" xml:space="preserve" viewBox="0 0 300 300">
    <g>
      <g>
        <path d="M149.996,0C67.157,0,0.001,67.161,0.001,149.997S67.157,300,149.996,300s150.003-67.163,150.003-150.003
			S232.835,0,149.996,0z M149.303,204.044h-0.002v-0.001c0,3.418-1.95,6.536-5.021,8.03c-1.24,0.602-2.578,0.903-3.909,0.903
			c-1.961,0-3.903-0.648-5.506-1.901l-29.289-22.945c-1.354,0.335-2.767,0.537-4.235,0.537h-29.35
			c-9.627,0-17.431-7.807-17.431-17.429v-50.837c0-9.625,7.804-17.431,17.431-17.431h29.352c1.707,0,3.348,0.257,4.912,0.711
			l28.612-22.424c2.684-2.106,6.344-2.492,9.415-0.999c3.071,1.494,5.021,4.609,5.021,8.027V204.044z M178.616,167.361l-9.788-9.788
			c2.256-3.084,3.608-6.87,3.608-10.979c0-4.536-1.631-8.699-4.331-11.936l9.713-9.713c5.177,5.745,8.362,13.323,8.362,21.649
			C186.177,154.492,183.331,161.733,178.616,167.361z M191.307,180.054c7.944-8.901,12.781-20.624,12.781-33.46
			c0-13.264-5.166-25.334-13.585-34.334l9.716-9.716c10.903,11.495,17.613,26.997,17.613,44.049c0,16.625-6.37,31.792-16.793,43.188
			L191.307,180.054z M224.385,212.84l-9.713-9.716c13.793-14.846,22.25-34.715,22.25-56.532c0-22.243-8.797-42.454-23.073-57.393
			l9.716-9.713c16.762,17.429,27.098,41.075,27.098,67.106C250.664,172.201,240.663,195.502,224.385,212.84z"></path>
      </g>
    </g>
    <g></g>
    <g></g>
    <g></g>
    <g></g>
    <g></g>
    <g></g>
    <g></g>
    <g></g>
    <g></g>
    <g></g>
    <g></g>
    <g></g>
    <g></g>
    <g></g>
    <g></g>
  </symbol>
</svg>